# xmcd
#
# Track frame offsets:
#	150
#	23282
#	56437
#	76928
#	100242
#	121236
#	152952
#	178632
#	209657
#	243754
#	275654
#
# Disc length: 4003 seconds
#
# Revision: 1
# Processed by: cddbd v1.5.2PL0 Copyright (c) Steve Scherf et al.
# Submitted via: audiograbber 1.83.01
#
DISCID=890fa10b
DTITLE=Bill Dowey and The Blue Devils - Look On Yonder Wall
DYEAR=1900
DGENRE=Blues
TTITLE0=seventh son
TTITLE1=spoonful
TTITLE2=certainly all
TTITLE3=running out of time
TTITLE4=bring it on home to me
TTITLE5=born under a bad sign
TTITLE6=early in the morning
TTITLE7=sitting on top of the world
TTITLE8=who do you love
TTITLE9=sail away
TTITLE10=look on yonder wall
EXTD=
EXTT0=
EXTT1=
EXTT2=
EXTT3=
EXTT4=
EXTT5=
EXTT6=
EXTT7=
EXTT8=
EXTT9=
EXTT10=
PLAYORDER=
